<svg xmlns="http://www.w3.org/2000/svg" width="1440" height="1120" viewBox="0 0 1440 1120">
  <defs>
    <linearGradient id="canvas" x1="0" y1="0" x2="1" y2="1"><stop stop-color="#0a0e13"/><stop offset="1" stop-color="#17202a"/></linearGradient>
    <linearGradient id="steel" x1="0" y1="0" x2="0.9" y2="1"><stop stop-color="#46515d"/><stop offset=".45" stop-color="#202a34"/><stop offset="1" stop-color="#121920"/></linearGradient>
    <linearGradient id="ember" x1="0" y1="0" x2="1" y2="1"><stop stop-color="#ffc163"/><stop offset=".55" stop-color="#e36d32"/><stop offset="1" stop-color="#9d3424"/></linearGradient>
    <linearGradient id="cyan" x1="0" y1="0" x2="1" y2="0"><stop stop-color="#44d5d5"/><stop offset="1" stop-color="#82f0db"/></linearGradient>
    <pattern id="microgrid" width="44" height="44" patternUnits="userSpaceOnUse"><path d="M44 0H0V44" fill="none" stroke="#9eb1c1" stroke-opacity=".045"/></pattern>
    <filter id="shade" x="-20%" y="-20%" width="140%" height="150%"><feDropShadow dx="0" dy="16" stdDeviation="18" flood-color="#000" flood-opacity=".34"/></filter>
  </defs>
  <rect width="1440" height="1120" fill="#e7eaed"/>
  <rect width="1440" height="38" fill="#090d12"/>
  <text x="104" y="25" fill="#aeb9c3" font-family="Arial,'Microsoft YaHei',sans-serif" font-size="11" letter-spacing="1.8">FIELD SUPPLY / AUTHORIZED EQUIPMENT</text>
  <text x="1118" y="25" fill="#8d9aa5" font-family="Arial,'Microsoft YaHei',sans-serif" font-size="11" letter-spacing="1">售后支持　　安全配送　　订单追踪</text>
  <rect y="38" width="1440" height="92" fill="#121920"/>
  <g transform="translate(105 56)">
    <path d="M4 6 34 0l29 18-7 35-28 14L2 50 0 23Z" fill="#161f28" stroke="#67727d" stroke-width="1.5"/>
    <path d="m13 17 18-8 20 12-8 7 7 7-17 22-18-7 8-13-11-6Z" fill="url(#steel)" stroke="#e8823c" stroke-width="1.8" stroke-linejoin="round"/>
    <path d="m34 21 12 3-9 5Z" fill="url(#cyan)"/><path d="m17 41 18 5 13-12" fill="none" stroke="#8796a3" stroke-width="2"/>
    <path d="m16 14-7-7m34-1 9-5" stroke="#f1a44d" stroke-width="2"/>
  </g>
  <text x="182" y="80" fill="#f1f3f4" font-family="Arial,'Microsoft YaHei',sans-serif" font-size="23" font-weight="700" letter-spacing="2">TYRANT / FIELD SYSTEMS</text>
  <text x="183" y="103" fill="#87939d" font-family="Arial,'Microsoft YaHei',sans-serif" font-size="10" letter-spacing="3">MECHANICAL DINOSAUR DIVISION</text>
  <g fill="#c1c9cf" font-family="Arial,'Microsoft YaHei',sans-serif" font-size="13" letter-spacing="1">
    <text x="493" y="84">装备库</text><text x="583" y="84">核心部件</text><text x="693" y="84">维护方案</text><text x="797" y="84">品牌档案</text>
  </g>
  <rect x="965" y="58" width="232" height="39" rx="4" fill="#0b1016" stroke="#3a4651"/>
  <text x="985" y="82" fill="#66727d" font-family="Arial,'Microsoft YaHei',sans-serif" font-size="12">检索装备、型号或部件</text>
  <rect x="1211" y="57" width="122" height="41" rx="4" fill="#df7438"/>
  <text x="1234" y="82" fill="#11171c" font-family="Arial,'Microsoft YaHei',sans-serif" font-size="12" font-weight="700" letter-spacing="1">补给清单　02</text>
  <rect y="130" width="1440" height="235" fill="url(#canvas)"/>
  <rect y="130" width="1440" height="235" fill="url(#microgrid)"/>
  <path d="M0 353H1440" stroke="#e47a3c" stroke-opacity=".56"/>
  <path d="M1010 130 873 365M1148 130l-138 235M1282 130l-137 235" stroke="#7e909e" stroke-opacity=".12"/>
  <text x="104" y="193" fill="#e28a4d" font-family="Arial,'Microsoft YaHei',sans-serif" font-size="10" letter-spacing="4">CHECKOUT / SECTOR 07</text>
  <text x="102" y="247" fill="#f2f4f5" font-family="Arial,'Microsoft YaHei',sans-serif" font-size="34" font-weight="600" letter-spacing="1">出发前 · 最终整备</text>
  <text x="104" y="278" fill="#9ca9b3" font-family="Arial,'Microsoft YaHei',sans-serif" font-size="14">校准投送坐标，确认装备清单。每一项都已进入出发序列。</text>
  <path d="M104 306h70" stroke="#50d3d0" stroke-width="2"/><text x="104" y="332" fill="#667580" font-family="Arial,sans-serif" font-size="10" letter-spacing="2">R E X   P R O T O C O L  /  0 7</text>
  <g transform="translate(1110 144)">
    <path d="m26 89 15-31 38-27 47 7 18 19 34 3 22 19-7 28-29 10-21 28-38 9-27-16-36 1-20-17Z" fill="url(#steel)" stroke="#83909b" stroke-width="2" stroke-linejoin="round"/>
    <path d="m54 65 28-23 32 6 15 15-15 13-42-1Z" fill="#28333d" stroke="#e17a3d" stroke-width="2"/>
    <path d="m104 58 18 2-13 9Z" fill="url(#cyan)"/>
    <path d="m143 74 47 3 19 13-34 9-24-6M68 90l-31 20-20-8 16-26M97 129l-7 31m44-37 9 28" fill="none" stroke="#85919b" stroke-width="9" stroke-linecap="round" stroke-linejoin="round"/>
    <path d="m43 57 8-21 10 15m14-22 11 16m16-20 10 17" fill="none" stroke="#d58a48" stroke-width="5" stroke-linecap="square"/>
    <path d="m40 112 31 4 12 12-34 2Zm87 12 28-4 14 9-38 8Z" fill="#101820" stroke="#586673" stroke-width="2"/>
    <path d="M217 88h43m-32 12h27" stroke="#e77b3e" stroke-width="2"/>
  </g>
  <g font-family="Arial,'Microsoft YaHei',sans-serif">
    <text x="104" y="414" fill="#1a242d" font-size="23" font-weight="700" letter-spacing=".5">订单配置</text>
    <text x="104" y="437" fill="#7c8992" font-size="11" letter-spacing="2">ORDER CONFIGURATION　/　01—03</text>
    <rect x="104" y="456" width="1232" height="145" rx="7" fill="#fff" filter="url(#shade)"/>
    <rect x="104" y="456" width="4" height="145" rx="2" fill="#dc773c"/>
    <text x="134" y="491" fill="#27343d" font-size="15" font-weight="700">投送坐标</text>
    <text x="134" y="527" fill="#293945" font-size="14" font-weight="600">林队长</text><text x="210" y="527" fill="#64727c" font-size="13">138 0000 0099</text>
    <rect x="335" y="510" width="46" height="21" rx="3" fill="#e7f4f2"/><text x="347" y="525" fill="#268d88" font-size="10">基地</text>
    <text x="134" y="557" fill="#72808b" font-size="13">浙江省 杭州市 西湖区　机甲大道 07 号整备中心</text>
    <text x="134" y="581" fill="#9ba6ad" font-size="10" letter-spacing=".6">COORDINATES VERIFIED</text>
    <rect x="1200" y="475" width="104" height="32" rx="3" fill="#fff" stroke="#cbd2d7"/>
    <text x="1226" y="496" fill="#475661" font-size="11">更换地址</text>
    <rect x="104" y="619" width="1232" height="252" rx="7" fill="#fff" filter="url(#shade)"/>
    <rect x="104" y="619" width="4" height="252" rx="2" fill="#4abdc0"/>
    <text x="134" y="655" fill="#27343d" font-size="15" font-weight="700">装备明细</text>
    <text x="134" y="676" fill="#92a0a8" font-size="10" letter-spacing="1">商品图片、名称、规格、单价与数量沿用当前接口数据</text>
    <text x="1100" y="655" fill="#8a969e" font-size="10" letter-spacing="1">单价</text><text x="1217" y="655" fill="#8a969e" font-size="10" letter-spacing="1">数量</text>
    <path d="M134 692H1306" stroke="#e8ecef"/>
    <rect x="134" y="710" width="91" height="91" rx="5" fill="#eef1f2" stroke="#dfe4e7"/>
    <path d="M153 770c-7-7-3-20 5-27l19-15 21 3 12 12-9 12-21-2-6 22-14 8Z" fill="url(#steel)" stroke="#a8b1b7" stroke-width="1.5"/>
    <path d="m179 735 7-10 7 9m9-6 6 9" fill="none" stroke="#de7b3e" stroke-width="3"/>
    <circle cx="196" cy="748" r="2.5" fill="#4dd7d5"/>
    <text x="247" y="744" fill="#364650" font-size="13" font-weight="600">商品名称　/　来自当前商品数据</text>
    <text x="247" y="768" fill="#8a969e" font-size="11">规格参数与选中 SKU 保持接口原值</text>
    <text x="1090" y="756" fill="#313f48" font-size="13">¥ 由接口提供</text>
    <text x="1224" y="756" fill="#586670" font-size="12">× 接口数量</text>
    <path d="M134 821H1306" stroke="#edf0f2"/>
    <text x="134" y="849" fill="#89959d" font-size="10" letter-spacing="1">列表外观由前端重排，商品内容继续动态渲染</text>
    <rect x="104" y="889" width="1232" height="147" rx="7" fill="#fff" filter="url(#shade)"/>
    <text x="134" y="925" fill="#27343d" font-size="15" font-weight="700">配送方案</text>
    <rect x="134" y="947" width="224" height="52" rx="4" fill="#fff9f3" stroke="#de8a4b" stroke-width="1.5"/>
    <circle cx="154" cy="973" r="6" fill="#dc773c"/><text x="171" y="978" fill="#45545e" font-size="11">标准配送　周一至周日</text>
    <rect x="370" y="947" width="212" height="52" rx="4" fill="#f7f8f9" stroke="#dce1e4"/><circle cx="390" cy="973" r="6" fill="#fff" stroke="#aab4bb"/><text x="407" y="978" fill="#6b7881" font-size="11">工作日优先</text>
    <rect x="594" y="947" width="212" height="52" rx="4" fill="#f7f8f9" stroke="#dce1e4"/><circle cx="614" cy="973" r="6" fill="#fff" stroke="#aab4bb"/><text x="631" y="978" fill="#6b7881" font-size="11">周末配送</text>
    <text x="978" y="928" fill="#849099" font-size="11">应付总额</text><text x="1065" y="931" fill="#d56d38" font-size="22" font-weight="700">¥ 1,299.00</text>
    <rect x="1161" y="956" width="143" height="49" rx="4" fill="url(#ember)"/>
    <text x="1192" y="986" fill="#151b20" font-size="13" font-weight="700" letter-spacing="1">提交订单　→</text>
  </g>
  <text x="104" y="1080" fill="#79868f" font-family="Arial,'Microsoft YaHei',sans-serif" font-size="11">VISUAL DIRECTION / graphite titanium · ember orange · restrained energy cyan　｜　概念稿：商品数据与图片由现有接口继续提供</text>
</svg>
